<!-- <svg width="73" height="24" viewBox="0 0 73 24" fill="none" xmlns="http://www.w3.org/2000/svg">
<mask id="mask0_1_9" style="mask-type:luminance" maskUnits="userSpaceOnUse" x="0" y="1" width="22" height="22">
<path d="M22 1H0V23H22V1Z" fill="white"/>
</mask>
<g mask="url(#mask0_1_9)">
<path fill-rule="evenodd" clip-rule="evenodd" d="M22 1V7.6V23H15.4V15.3036C15.398 19.5546 11.9514 23 7.7 23C3.44741 23 0 19.5526 0 15.3C0 11.0474 3.44741 7.6 7.7 7.6C11.9514 7.6 15.398 11.0454 15.4 15.2964V7.6H7.7H0V1L15.4 1L22 1Z" fill="url(#paint0_linear_1_9)"/>
</g>
<path d="M29.7713 19H26.4759L31.4972 4.45455H35.4602L40.4744 19H37.179L33.5355 7.77841H33.4219L29.7713 19ZM29.5653 13.2827H37.3494V15.6832H29.5653V13.2827ZM45.5895 19.2131C44.4721 19.2131 43.5109 18.9763 42.706 18.5028C41.9058 18.0246 41.2902 17.3617 40.8594 16.5142C40.4332 15.6667 40.2202 14.6913 40.2202 13.5881C40.2202 12.4706 40.4356 11.4905 40.8665 10.6477C41.3021 9.80019 41.92 9.13968 42.7202 8.66619C43.5204 8.18797 44.4721 7.94886 45.5753 7.94886C46.527 7.94886 47.3603 8.12169 48.0753 8.46733C48.7902 8.81297 49.3561 9.2983 49.7727 9.9233C50.1894 10.5483 50.419 11.2822 50.4616 12.125H47.6065C47.526 11.5805 47.313 11.1425 46.9673 10.8111C46.6264 10.4749 46.179 10.3068 45.625 10.3068C45.1562 10.3068 44.7467 10.4347 44.3963 10.6903C44.0507 10.9413 43.7808 11.3082 43.5866 11.7912C43.3925 12.2741 43.2955 12.8589 43.2955 13.5455C43.2955 14.2415 43.3902 14.8333 43.5795 15.321C43.7737 15.8087 44.0459 16.1804 44.3963 16.4361C44.7467 16.6918 45.1562 16.8196 45.625 16.8196C45.9706 16.8196 46.2808 16.7486 46.5554 16.6065C46.8348 16.4645 47.0644 16.2585 47.2443 15.9886C47.429 15.714 47.5497 15.3849 47.6065 15.0014H50.4616C50.4143 15.8348 50.187 16.5687 49.7798 17.2031C49.3774 17.8329 48.821 18.3253 48.1108 18.6804C47.4006 19.0355 46.5601 19.2131 45.5895 19.2131ZM56.3278 19.2131C55.2103 19.2131 54.2492 18.9763 53.4442 18.5028C52.6441 18.0246 52.0285 17.3617 51.5977 16.5142C51.1715 15.6667 50.9585 14.6913 50.9585 13.5881C50.9585 12.4706 51.1739 11.4905 51.6048 10.6477C52.0404 9.80019 52.6583 9.13968 53.4585 8.66619C54.2586 8.18797 55.2103 7.94886 56.3136 7.94886C57.2653 7.94886 58.0986 8.12169 58.8136 8.46733C59.5285 8.81297 60.0943 9.2983 60.511 9.9233C60.9277 10.5483 61.1573 11.2822 61.1999 12.125H58.3448C58.2643 11.5805 58.0513 11.1425 57.7056 10.8111C57.3647 10.4749 56.9173 10.3068 56.3633 10.3068C55.8945 10.3068 55.485 10.4347 55.1346 10.6903C54.7889 10.9413 54.5191 11.3082 54.3249 11.7912C54.1308 12.2741 54.0337 12.8589 54.0337 13.5455C54.0337 14.2415 54.1284 14.8333 54.3178 15.321C54.512 15.8087 54.7842 16.1804 55.1346 16.4361C55.485 16.6918 55.8945 16.8196 56.3633 16.8196C56.7089 16.8196 57.0191 16.7486 57.2937 16.6065C57.573 16.4645 57.8027 16.2585 57.9826 15.9886C58.1673 15.714 58.288 15.3849 58.3448 15.0014H61.1999C61.1526 15.8348 60.9253 16.5687 60.5181 17.2031C60.1156 17.8329 59.5593 18.3253 58.8491 18.6804C58.1388 19.0355 57.2984 19.2131 56.3278 19.2131ZM62.1371 19V8.09091H65.0703V9.99432H65.1839C65.3828 9.31723 65.7166 8.80587 66.1854 8.46023C66.6541 8.10985 67.1939 7.93466 67.8047 7.93466C67.9562 7.93466 68.1196 7.94413 68.2947 7.96307C68.4699 7.98201 68.6238 8.00805 68.7564 8.04119V10.7259C68.6143 10.6832 68.4179 10.6454 68.1669 10.6122C67.916 10.5791 67.6863 10.5625 67.478 10.5625C67.0329 10.5625 66.6352 10.6596 66.2848 10.8537C65.9392 11.0431 65.6645 11.3082 65.4609 11.6491C65.2621 11.9901 65.1626 12.383 65.1626 12.8281V19H62.1371ZM69.8391 19.1847C69.3704 19.1847 68.9679 19.0189 68.6317 18.6875C68.3003 18.3513 68.1346 17.9489 68.1346 17.4801C68.1346 17.0161 68.3003 16.6184 68.6317 16.2869C68.9679 15.9555 69.3704 15.7898 69.8391 15.7898C70.2937 15.7898 70.6914 15.9555 71.0323 16.2869C71.3732 16.6184 71.5437 17.0161 71.5437 17.4801C71.5437 17.7926 71.4632 18.0791 71.3022 18.3395C71.146 18.5952 70.94 18.8011 70.6843 18.9574C70.4286 19.1089 70.1469 19.1847 69.8391 19.1847Z" fill="white"/>
<defs>
<linearGradient id="paint0_linear_1_9" x1="17.325" y1="4.52" x2="4.84" y2="17.225" gradientUnits="userSpaceOnUse">
<stop offset="0.0509862" stop-color="#FFB6E1"/>
<stop offset="1" stop-color="#FBE3EA"/>
</linearGradient>
</defs>
</svg> -->

<svg width="73" height="24" viewBox="0 0 73 24" fill="none" xmlns="http://www.w3.org/2000/svg">
<mask id="mask0_1_9" style="mask-type:luminance" maskUnits="userSpaceOnUse" x="0" y="1" width="22" height="22">
<path d="M22 1H0V23H22V1Z" fill="white"/>
</mask>
<g mask="url(#mask0_1_9)">
<path fill-rule="evenodd" clip-rule="evenodd" d="M22 1V7.6V23H15.4V15.3036C15.398 19.5546 11.9514 23 7.7 23C3.44741 23 0 19.5526 0 15.3C0 11.0474 3.44741 7.6 7.7 7.6C11.9514 7.6 15.398 11.0454 15.4 15.2964V7.6H7.7H0V1L15.4 1L22 1Z" fill="url(#paint0_linear_1_9)"/>
</g>
<path d="M29.7713 19H26.4759L31.4972 4.45455H35.4602L40.4744 19H37.179L33.5355 7.77841H33.4219L29.7713 19ZM29.5653 13.2827H37.3494V15.6832H29.5653V13.2827ZM45.5895 19.2131C44.4721 19.2131 43.5109 18.9763 42.706 18.5028C41.9058 18.0246 41.2902 17.3617 40.8594 16.5142C40.4332 15.6667 40.2202 14.6913 40.2202 13.5881C40.2202 12.4706 40.4356 11.4905 40.8665 10.6477C41.3021 9.80019 41.92 9.13968 42.7202 8.66619C43.5204 8.18797 44.4721 7.94886 45.5753 7.94886C46.527 7.94886 47.3603 8.12169 48.0753 8.46733C48.7902 8.81297 49.3561 9.2983 49.7727 9.9233C50.1894 10.5483 50.419 11.2822 50.4616 12.125H47.6065C47.526 11.5805 47.313 11.1425 46.9673 10.8111C46.6264 10.4749 46.179 10.3068 45.625 10.3068C45.1562 10.3068 44.7467 10.4347 44.3963 10.6903C44.0507 10.9413 43.7808 11.3082 43.5866 11.7912C43.3925 12.2741 43.2955 12.8589 43.2955 13.5455C43.2955 14.2415 43.3902 14.8333 43.5795 15.321C43.7737 15.8087 44.0459 16.1804 44.3963 16.4361C44.7467 16.6918 45.1562 16.8196 45.625 16.8196C45.9706 16.8196 46.2808 16.7486 46.5554 16.6065C46.8348 16.4645 47.0644 16.2585 47.2443 15.9886C47.429 15.714 47.5497 15.3849 47.6065 15.0014H50.4616C50.4143 15.8348 50.187 16.5687 49.7798 17.2031C49.3774 17.8329 48.821 18.3253 48.1108 18.6804C47.4006 19.0355 46.5601 19.2131 45.5895 19.2131ZM56.3278 19.2131C55.2103 19.2131 54.2492 18.9763 53.4442 18.5028C52.6441 18.0246 52.0285 17.3617 51.5977 16.5142C51.1715 15.6667 50.9585 14.6913 50.9585 13.5881C50.9585 12.4706 51.1739 11.4905 51.6048 10.6477C52.0404 9.80019 52.6583 9.13968 53.4585 8.66619C54.2586 8.18797 55.2103 7.94886 56.3136 7.94886C57.2653 7.94886 58.0986 8.12169 58.8136 8.46733C59.5285 8.81297 60.0943 9.2983 60.511 9.9233C60.9277 10.5483 61.1573 11.2822 61.1999 12.125H58.3448C58.2643 11.5805 58.0513 11.1425 57.7056 10.8111C57.3647 10.4749 56.9173 10.3068 56.3633 10.3068C55.8945 10.3068 55.485 10.4347 55.1346 10.6903C54.7889 10.9413 54.5191 11.3082 54.3249 11.7912C54.1308 12.2741 54.0337 12.8589 54.0337 13.5455C54.0337 14.2415 54.1284 14.8333 54.3178 15.321C54.512 15.8087 54.7842 16.1804 55.1346 16.4361C55.485 16.6918 55.8945 16.8196 56.3633 16.8196C56.7089 16.8196 57.0191 16.7486 57.2937 16.6065C57.573 16.4645 57.8027 16.2585 57.9826 15.9886C58.1673 15.714 58.288 15.3849 58.3448 15.0014H61.1999C61.1526 15.8348 60.9253 16.5687 60.5181 17.2031C60.1156 17.8329 59.5593 18.3253 58.8491 18.6804C58.1388 19.0355 57.2984 19.2131 56.3278 19.2131ZM62.1371 19V8.09091H65.0703V9.99432H65.1839C65.3828 9.31723 65.7166 8.80587 66.1854 8.46023C66.6541 8.10985 67.1939 7.93466 67.8047 7.93466C67.9562 7.93466 68.1196 7.94413 68.2947 7.96307C68.4699 7.98201 68.6238 8.00805 68.7564 8.04119V10.7259C68.6143 10.6832 68.4179 10.6454 68.1669 10.6122C67.916 10.5791 67.6863 10.5625 67.478 10.5625C67.0329 10.5625 66.6352 10.6596 66.2848 10.8537C65.9392 11.0431 65.6645 11.3082 65.4609 11.6491C65.2621 11.9901 65.1626 12.383 65.1626 12.8281V19H62.1371ZM69.8391 19.1847C69.3704 19.1847 68.9679 19.0189 68.6317 18.6875C68.3003 18.3513 68.1346 17.9489 68.1346 17.4801C68.1346 17.0161 68.3003 16.6184 68.6317 16.2869C68.9679 15.9555 69.3704 15.7898 69.8391 15.7898C70.2937 15.7898 70.6914 15.9555 71.0323 16.2869C71.3732 16.6184 71.5437 17.0161 71.5437 17.4801C71.5437 17.7926 71.4632 18.0791 71.3022 18.3395C71.146 18.5952 70.94 18.8011 70.6843 18.9574C70.4286 19.1089 70.1469 19.1847 69.8391 19.1847Z" fill="white"/>
<defs>
<linearGradient id="paint0_linear_1_9" x1="17.325" y1="4.52" x2="4.84" y2="17.225" gradientUnits="userSpaceOnUse">
<stop offset="0.0509862" stop-color="#FF5A36"/>
<stop offset="1" stop-color="#EA9C85"/>
</linearGradient>
</defs>
</svg>
